<?xml version="1.0" encoding="UTF-8"?>
<svg version="1.1" xmlns="http://www.w3.org/2000/svg" width="512" height="512">
<path d="M0 0 C0.97195313 0.76828125 1.94390625 1.5365625 2.9453125 2.328125 C10.31415076 8.32119551 17.07602793 14.86997673 23.8125 21.5625 C25.13797852 22.87408081 25.13797852 22.87408081 26.49023438 24.2121582 C32.09417709 29.84302265 37.18135368 35.68660583 42 42 C42.54309814 42.70406982 43.08619629 43.40813965 43.64575195 44.13354492 C73.75577974 83.61785006 93.77886825 133.59587666 94.23828125 183.65234375 C94.24802979 184.54203857 94.25777832 185.4317334 94.26782227 186.34838867 C94.44112022 206.2637901 94.12010067 225.43120213 90 245 C89.81276367 245.9266748 89.62552734 246.85334961 89.43261719 247.80810547 C85.18346962 268.4777499 78.22532141 288.04537034 69 307 C68.64180176 307.73702148 68.28360352 308.47404297 67.91455078 309.23339844 C57.19451139 330.98747379 42.80507033 350.56552629 26 368 C25.41669922 368.60521484 24.83339844 369.21042969 24.23242188 369.83398438 C16.55706522 377.74944603 8.81507891 385.34325226 0 392 C-0.61617188 392.47083008 -1.23234375 392.94166016 -1.8671875 393.42675781 C-55.41267323 434.12440429 -122.3443157 452.38008808 -189.16186523 443.47875977 C-250.8636416 434.16789458 -309.07572156 403.3727615 -348 354 C-348.63035156 353.24847656 -349.26070313 352.49695313 -349.91015625 351.72265625 C-374.48359671 322.20425241 -390.73365875 285.5847491 -399.125 248.3125 C-399.44355957 246.92454224 -399.44355957 246.92454224 -399.76855469 245.50854492 C-401.02050857 239.50636778 -401.84674969 233.67929362 -398.984375 227.9765625 C-392.7608253 221.16216948 -384.58334432 220.86984553 -375.875 219.375 C-374.6065625 219.14554687 -373.338125 218.91609375 -372.03125 218.6796875 C-353.35073856 215.44429995 -353.35073856 215.44429995 -346.5 218.625 C-340.8072657 224.03309759 -339.914631 231.19079344 -338.3125 238.5625 C-330.33094994 273.16514816 -313.28015994 302.32047796 -289 328 C-288.53609863 328.49790039 -288.07219727 328.99580078 -287.59423828 329.50878906 C-257.42267977 361.74919443 -210.78846573 382.46875488 -166.73535156 384.12255859 C-117.71349815 385.20247926 -67.54919005 372.70029088 -31.05859375 337.98046875 C-30.03958984 337.00013672 -30.03958984 337.00013672 -29 336 C-27.63128937 334.80525632 -26.25647816 333.61745735 -24.875 332.4375 C-16.48652727 325.07242095 -9.53180542 317.02272702 -3 308 C-2.58991699 307.4342627 -2.17983398 306.86852539 -1.75732422 306.28564453 C9.93840674 289.93762202 18.80332704 272.10163033 25 253 C25.39832031 251.77925781 25.79664063 250.55851562 26.20703125 249.30078125 C31.55779456 231.72542761 33.23524816 213.91752858 33.25 195.625 C33.25067474 194.87088837 33.25134949 194.11677673 33.25204468 193.33981323 C33.2350224 181.33465203 32.64347662 169.75247778 30 158 C29.82307617 157.2064209 29.64615234 156.4128418 29.46386719 155.59521484 C21.31253533 120.15311131 3.97716039 89.23900802 -21 63 C-21.69222656 62.24332031 -22.38445312 61.48664063 -23.09765625 60.70703125 C-52.68243551 29.41214914 -99.59208051 9.43811977 -142.35839844 7.87744141 C-159.06986738 7.52146511 -175.57695867 7.52833393 -192 11 C-192.89912109 11.18804199 -193.79824219 11.37608398 -194.72460938 11.56982422 C-227.34785752 18.66453407 -257.70494298 34.03739583 -282 57 C-283.41211199 58.21365301 -284.82858091 59.42226077 -286.25 60.625 C-289.90373372 63.79602499 -292.94256352 67.25464032 -296 71 C-289.09075015 70.41598181 -282.34283803 69.43577632 -275.53125 68.15234375 C-273.55864352 67.79074402 -271.58598568 67.42942437 -269.61328125 67.06835938 C-266.55189302 66.50346328 -263.49107354 65.93582904 -260.43115234 65.36303711 C-257.44506954 64.80581059 -254.45711701 64.25966797 -251.46875 63.71484375 C-250.56741333 63.54299057 -249.66607666 63.37113739 -248.73742676 63.19407654 C-234.08053999 60.54374473 -234.08053999 60.54374473 -227.5625 63.625 C-222.7421253 68.09266436 -221.44313398 73.4807371 -220.359375 79.77734375 C-220.2280719 80.50691788 -220.0967688 81.236492 -219.96148682 81.98817444 C-219.68807728 83.52278544 -219.41941202 85.05824855 -219.15527344 86.59448242 C-218.75132137 88.92986072 -218.32590547 91.26062239 -217.8984375 93.59179688 C-217.63411259 95.09091648 -217.37104955 96.59025924 -217.109375 98.08984375 C-216.9823822 98.77860092 -216.8553894 99.46735809 -216.72454834 100.17698669 C-215.79566846 105.73100954 -215.90144302 110.58317465 -218.25 115.75 C-222.42286364 121.11511039 -227.99565408 121.83358494 -234.32617188 122.92333984 C-235.2604451 123.09257084 -236.19471832 123.26180183 -237.15730286 123.43616104 C-240.25948097 123.99568927 -243.36401261 124.54080468 -246.46875 125.0859375 C-248.66711688 125.47941362 -250.86531556 125.87383054 -253.06335449 126.26913452 C-257.69154981 127.09996901 -262.32071815 127.92506037 -266.95068359 128.74597168 C-273.78395802 129.95894118 -280.61310616 131.19394487 -287.44140625 132.43457031 C-297.44140895 134.25010698 -307.44441589 136.04806779 -317.45033264 137.83072281 C-323.11273395 138.83980373 -328.7741104 139.85406249 -334.43359375 140.87939453 C-340.06429385 141.89937705 -345.69706392 142.90707291 -351.33152771 143.90604782 C-353.44051826 144.2820836 -355.54875103 144.66239817 -357.65614319 145.0472908 C-360.56632672 145.57799844 -363.47890966 146.09282783 -366.39257812 146.60400391 C-367.23701477 146.76177307 -368.08145142 146.91954224 -368.95147705 147.08209229 C-374.38369339 148.01308899 -379.59605737 148.32641121 -385 147 C-393.32887059 141.02494067 -394.00079555 129.63224054 -395.63549805 120.24707031 C-395.88161458 118.8662514 -396.12837725 117.48554752 -396.37573242 116.10494995 C-397.04192213 112.37459796 -397.69834873 108.64259162 -398.35240912 104.91009617 C-398.90115275 101.78372376 -399.45464244 98.65819909 -400.00808936 95.53265643 C-401.3149084 88.1519036 -402.61373129 80.76977461 -403.9074707 73.38671875 C-405.23776062 65.79585647 -406.58112707 58.20739243 -407.93106622 50.62000203 C-409.09358295 44.08343708 -410.24805993 37.54548664 -411.39618713 31.00637889 C-412.08023792 27.11079273 -412.76717193 23.21577538 -413.46179771 19.32205963 C-414.1153864 15.65626782 -414.75881801 11.98882847 -415.39484406 8.3199501 C-415.73869061 6.3506601 -416.09253135 4.38312307 -416.4467926 2.41567993 C-419.61177475 -16.01554107 -419.61177475 -16.01554107 -417.20630932 -21.96207809 C-411.63522136 -29.75716339 -398.46406 -30.19590563 -389.875 -31.6875 C-388.02068359 -32.02491211 -388.02068359 -32.02491211 -386.12890625 -32.36914062 C-369.30308368 -35.34212431 -369.30308368 -35.34212431 -363 -31 C-358.34747588 -24.61895758 -357.5014919 -17.63520257 -356.203125 -9.97265625 C-355.96338363 -8.61481974 -355.72245858 -7.25719173 -355.48040771 -5.89976501 C-354.85052658 -2.34918539 -354.23663087 1.20397355 -353.62615967 4.75793457 C-352.99879063 8.39307142 -352.35615405 12.02550475 -351.71484375 15.65820312 C-350.46170735 22.76959398 -349.22546676 29.88378287 -348 37 C-344.46028985 33.48100072 -341.03599062 29.88767767 -337.6875 26.1875 C-330.80157228 18.6505433 -323.82461018 11.67782558 -315.83984375 5.28125 C-314.00096157 3.80407367 -312.17921177 2.3052046 -310.37890625 0.78125 C-274.49944333 -29.50037695 -229.04894942 -45.93421345 -183 -52 C-182.22350098 -52.1045752 -181.44700195 -52.20915039 -180.64697266 -52.31689453 C-117.01378963 -59.81973134 -49.5623762 -40.42230163 0 0 Z " fill="#FFFFFF" transform="translate(418,60)"/>
</svg>
